<svg xmlns="http://www.w3.org/2000/svg" viewBox="0 0 100 100" fill="#15A29C" width="100" height="100"><path d="M87.7639923,58.7363205c0.7736969-0.8934593,0.980629-2.1979523,0.4191284-3.321373L77.0532074,33.1399689  c-0.5463638-1.0926132-1.6670532-1.7018528-2.8134003-1.6586361H64.0463562  c-1.1461334-0.0431099-2.2672424,0.5660229-2.8136024,1.6586361l-9.7385712,19.4903946l-9.8481407-19.5021706  c-0.5888405-1.1665344-1.8342361-1.7743015-3.0623894-1.6215191L25.5814342,31.631382  c-1.0605431,0.0401688-2.0683002,0.6270103-2.5797501,1.6406555L11.822135,55.4099007  c-0.5664425,1.1221619-0.3635035,2.4295959,0.4084034,3.3264198H6.4760985v5.4553909h3.1132817V87.097908h5.5218477V64.1917114  h1.1934519c0.0161934,0.1292343,0.0228176,0.2580414,0.0523643,0.3872681l4.5601463,19.909523  C21.328537,86.2836227,22.9251347,87.5,24.6924953,87.5c0.2860088,0,0.5779057-0.0319672,0.8689613-0.0984192  c2.0861759-0.4786453,3.3908768-2.557251,2.9130745-4.6442642l-3.8165245-16.6624908l4.8188152-1.9031143h5.6935577  l4.8193398,1.9031143l-3.8165245,16.6624908c-0.4778023,2.0870132,0.8269005,4.1656189,2.9130745,4.6442642  C39.377327,87.4680328,39.6683807,87.5,39.9552307,87.5c1.7673607,0,3.3639603-1.2163773,3.7753067-3.0114975l4.5601425-19.909523  c0.0296555-0.1292267,0.0363846-0.2580338,0.0523643-0.3872681h6.9830132  c-0.0264969,0.4651871-0.0037842,0.9504547,0.0961075,1.4271011l0.0012627,0.0059891  c0.2237587,1.0675888,0.742569,1.761261,1.3168983,1.761261h3.4878273l1.5572701,16.9829941  C61.9494553,86.1574478,63.4518394,87.5,65.212471,87.5c0.1051483,0,0.2119827-0.0042038,0.3188171-0.0142975  c1.8952255-0.1741333,3.2899323-1.8506393,3.1166458-3.7458649l-1.4994431-16.353775h1.71521h0.5585556h1.715416  l-1.499649,16.353775c-0.1732864,1.8952255,1.2214279,3.5717316,3.1166458,3.7458649  C72.8615036,87.4957962,72.9674988,87.5,73.0734863,87.5c1.7606354,0,3.2630157-1.343399,3.4270477-3.1309433l1.5574799-16.9829941  h3.4876175c0.5743332,0,1.0931396-0.6936722,1.3169022-1.761261l0.0012589-0.0059891  c0.0999985-0.4766464,0.122818-0.9619141,0.0963211-1.4271011h1.9286575V87.097908h5.5218506V64.1917114h3.1132813v-5.4553909  H87.7639923z M22.1844578,58.7363205h-5.3935642c0.1575146-0.1826439,0.2996769-0.3826408,0.4132404-0.6076622l5.0554008-10.0105972  v10.1604347c0,0.1411133,0.0290222,0.2739182,0.0414295,0.4117699L22.1844578,58.7363205z M42.4630585,58.7363205  l-0.1162949-0.0459518c0.0124054-0.1378517,0.0414276-0.2707596,0.0414276-0.4118729V47.9745331l5.0554008,10.0111198  c0.1440582,0.2851677,0.3297501,0.5341644,0.5421562,0.7506676H42.4630585z M57.0942612,58.7363205h-2.0221405  c0.1626663-0.1874809,0.3084068-0.3939972,0.4244919-0.6261673l6.4288712-12.8663673l0.3156586,3.0122337L57.0942612,58.7363205z   M81.1921158,58.7363205l-5.1468811-10.4803009l0.3154526-3.0118103l6.4286575,12.8659439  c0.1160889,0.2321701,0.2619324,0.4386864,0.4245987,0.6261673H81.1921158z M61.9505081,23.5053902  c0-3.9723568,3.2201157-7.1924706,7.1924744-7.1924706c3.9723511,0,7.1924667,3.2201138,7.1924667,7.1924706  s-3.2201157,7.1924706-7.1924667,7.1924706C65.1706238,30.6978607,61.9505081,27.477747,61.9505081,23.5053902z   M71.6728897,15.1265116c0.1329117-0.3566685,0.5316391-0.5383682,0.8866272-0.4054585  c0.7957687,0.2968388,1.5351868,0.699563,2.2098312,1.1859875l-1.3551788-1.732873  c-0.2946243-0.376647-0.1251221-0.9314184,0.3295441-1.0792589l1.7236176-0.5606604  c0.442894-0.1439505,0.8979797,0.1836977,0.9017639,0.6493015l0.0208206,2.4833279  c0,0.0052576-0.0031509,0.0095682-0.0033646,0.0147209l2.3250809-0.0860128  c0.4653931-0.0172443,0.8132248,0.422492,0.6895752,0.8713789l-0.4820099,1.7472763  c-0.1270218,0.4608727-0.6735916,0.6552963-1.0632782,0.3781204l-1.1623306-0.8269005  c0.3753891,0.4851627,0.7078705,1.0077572,0.9863129,1.5670509c0.1699219,0.3406868,0.0311203,0.7545567-0.3095627,0.9236374  c-0.0984192,0.0496311-0.2035751,0.0723438-0.3061981,0.0723438c-0.2532043,0-0.4971466-0.1396389-0.6174393-0.3819046  c-0.9093399-1.8254051-2.4605103-3.2226372-4.3683548-3.9334526C71.7216797,15.8802271,71.539978,15.48318,71.6728897,15.1265116z   M25.1313915,23.5053902c0-3.9723568,3.2201138-7.1924706,7.1924725-7.1924706s7.1924706,3.2201138,7.1924706,7.1924706  s-3.2201157,7.1924706-7.1924706,7.1924706S25.1313915,27.477747,25.1313915,23.5053902z"></path></svg>